HIERARCHY
ROOT Hips
{
	OFFSET -3.958830 18.904000 13.208200
	CHANNELS 6 Xposition Yposition Zposition Zrotation Yrotation Xrotation 
	JOINT LHipJoint
	{
		OFFSET 0.000000 0.000000 0.000000
		CHANNELS 3 Zrotation Yrotation Xrotation
		JOINT LeftUpLeg
		{
			OFFSET 1.800000 -1.400000 0.085000
			CHANNELS 3 Zrotation Yrotation Xrotation
			JOINT LeftLeg
			{
				OFFSET 2.215000 -6.000000 0.000000
				CHANNELS 3 Zrotation Yrotation Xrotation
				JOINT LeftFoot
				{
					OFFSET 2.500000 -6.900000 0.000000
					CHANNELS 3 Zrotation Yrotation Xrotation
					JOINT LeftToeBase
					{
						OFFSET 0.200000 -0.500000 1.950000
						CHANNELS 3 Zrotation Yrotation Xrotation
						End Site
						{
							OFFSET 0.000000 0.000000 0.000000
						}
					}
				}
			}
		}
	}
	JOINT RHipJoint
	{
		OFFSET 0.000000 0.000000 0.000000
		CHANNELS 3 Zrotation Yrotation Xrotation
		JOINT RightUpLeg
		{
			OFFSET -1.800000 -1.400000 0.085000
			CHANNELS 3 Zrotation Yrotation Xrotation
			JOINT RightLeg
			{
				OFFSET -2.215000 -6.000000 0.000000
				CHANNELS 3 Zrotation Yrotation Xrotation
				JOINT RightFoot
				{
					OFFSET -2.500000 -6.900000 0.000000
					CHANNELS 3 Zrotation Yrotation Xrotation
					JOINT RightToeBase
					{
						OFFSET -0.200000 -0.500000 1.950000
						CHANNELS 3 Zrotation Yrotation Xrotation
						End Site
						{
							OFFSET 0.000000 0.000000 0.000000
						}
					}
				}
			}
		}
	}
	JOINT LowerBack
	{
		OFFSET 0.000000 0.000000 0.000000
		CHANNELS 3 Zrotation Yrotation Xrotation
		JOINT Spine
		{
			OFFSET -0.087000 1.940000 -0.288900
			CHANNELS 3 Zrotation Yrotation Xrotation
			JOINT Spine1
			{
				OFFSET 0.000000 1.950000 0.060000
				CHANNELS 3 Zrotation Yrotation Xrotation
				JOINT Neck
				{
					OFFSET 0.000000 0.000000 0.000000
					CHANNELS 3 Zrotation Yrotation Xrotation
					JOINT Neck1
					{
						OFFSET 0.000000 1.600000 0.340000
						CHANNELS 3 Zrotation Yrotation Xrotation
						JOINT Head
						{
							OFFSET 0.000000 1.667000 -0.240000
							CHANNELS 3 Zrotation Yrotation Xrotation
							End Site
							{
								OFFSET 0.000000 0.000000 0.000000
							}
						}
					}
				}
				JOINT LeftShoulder
				{
					OFFSET 0.000000 0.000000 0.000000
					CHANNELS 3 Zrotation Yrotation Xrotation
					JOINT LeftArm
					{
						OFFSET 2.700000 1.550000 -0.730000
						CHANNELS 3 Zrotation Yrotation Xrotation
						JOINT LeftForeArm
						{
							OFFSET 5.450000 0.000000 0.000000
							CHANNELS 3 Zrotation Yrotation Xrotation
							JOINT LeftHand
							{
								OFFSET 3.450000 0.000000 0.000000
								CHANNELS 3 Zrotation Yrotation Xrotation
								JOINT LeftHandIndex1
								{
									OFFSET 0.750000 0.000000 0.000000
									CHANNELS 3 Zrotation Yrotation Xrotation
									End Site
									{
										OFFSET 0.000000 0.000000 0.000000
									}
								}
							}
						}
					}
				}
				JOINT RightShoulder
				{
					OFFSET 0.000000 0.000000 0.000000
					CHANNELS 3 Zrotation Yrotation Xrotation
					JOINT RightArm
					{
						OFFSET -2.700000 1.550000 -0.730000
						CHANNELS 3 Zrotation Yrotation Xrotation
						JOINT RightForeArm
						{
							OFFSET -5.450000 0.000000 0.000000
							CHANNELS 3 Zrotation Yrotation Xrotation
							JOINT RightHand
							{
								OFFSET -3.450000 0.000000 0.000000
								CHANNELS 3 Zrotation Yrotation Xrotation
								JOINT RightHandIndex1
								{
									OFFSET -0.750000 0.000000 0.000000
									CHANNELS 3 Zrotation Yrotation Xrotation
									End Site
									{
										OFFSET 0.000000 0.000000 0.000000
									}
								}
							}
						}
					}
				}
			}
		}
	}
}
MOTION
Frames: 7
Frame Time: 0.016667
0.585250 15.683390 -2.659540 4.624375 -8.332876 3.740691 -16.090985 10.158463 6.125548 47.086317 4.443153 -33.482280 -21.384103 18.330383 29.168039 1.614687 10.229598 1.118938 0.092930 -0.157840 -0.002170 18.379299 -5.445399 4.654044 -33.734421 8.667291 -45.115889 37.090354 -29.175140 45.271717 -1.982919 -10.731935 0.881301 -0.592960 0.006980 0.246250 -2.823649 -5.368851 -10.377476 19.634897 -26.474482 61.265994 -14.388872 -5.837687 -33.118511 10.215863 -16.405037 -10.809563 -34.961025 10.268331 30.061156 -5.086930 3.965750 -10.459020 -13.483971 20.281089 -4.112862 -46.807804 32.997240 -13.971488 21.128255 1.762301 2.237214 -3.506214 2.911592 0.409660 -0.370720 0.316060 0.307350 -7.707104 -1.070122 9.315152 40.375159 -10.303147 -13.510209 -125.851114 13.226260 -20.161392 3.042548 -2.314567 0.290790 -0.164800 -0.251250 0.273990 
0.606840 15.636760 -2.635010 3.333222 -8.591209 5.437947 -16.130605 10.359659 5.922673 46.317143 4.709469 -32.874576 -18.501516 16.081985 25.731136 1.394671 9.546631 1.290411 0.121670 -0.139490 0.031150 18.333691 -5.273570 4.817060 -33.642142 9.180139 -46.558533 38.790119 -29.421280 44.144307 -1.999325 -10.685226 0.888116 -0.561680 -0.005860 0.247300 -2.700171 -5.833619 -10.340984 22.289543 -26.901365 58.265365 -14.861805 -5.373447 -32.752261 10.226902 -16.767851 -10.826638 -35.905382 10.621469 30.437383 -6.032780 4.570840 -10.125780 -13.195232 20.958225 -4.260566 -48.179805 34.321027 -14.759870 17.592928 1.683730 1.716674 -3.523071 2.841557 0.426230 -0.368580 0.314520 0.297800 -8.142412 -0.903290 9.077613 39.635071 -7.970675 -12.678242 -126.991004 7.537405 -9.395145 3.112619 -2.390018 0.276660 -0.162180 -0.250220 0.249850 
0.633960 15.574530 -2.577410 1.963041 -7.374311 7.823578 -16.084582 10.923275 5.254695 42.482927 3.867169 -31.702057 -11.878900 11.613821 18.829062 0.963970 7.833566 1.788306 0.081640 -0.218210 0.032040 18.288306 -5.288453 5.123274 -33.873308 9.012436 -48.297185 41.017302 -29.811092 42.391846 -1.971258 -10.585095 0.897214 -0.549710 0.037480 0.210910 -2.608911 -6.476262 -10.103118 27.466839 -28.363049 52.975948 -16.678393 -4.931547 -33.104943 10.132945 -17.186202 -11.523412 -38.005135 11.716734 31.160676 -4.493850 4.829450 -7.956080 -12.081713 20.755755 -3.511831 -49.678012 36.029175 -15.413969 14.476349 3.188469 1.387439 -3.602254 2.696833 0.481950 -0.350690 0.266110 0.247610 -8.848974 0.365675 8.695615 39.074733 -6.363109 -12.827150 -130.302544 -2.992461 12.654828 3.256452 -2.437334 0.185500 -0.101600 -0.174520 0.194880 
0.658260 15.495960 -2.550060 0.219211 -6.356467 10.018566 -16.050568 11.330433 4.734120 39.470000 3.406346 -31.026174 -5.790421 8.489539 12.824949 0.720902 6.473980 2.233353 0.135530 -0.169370 0.089090 18.255538 -5.243128 5.408877 -34.009553 9.279222 -50.142135 43.983769 -30.055745 40.189649 -2.009322 -10.515321 0.905225 -0.481820 0.062710 0.271170 -2.540229 -6.985008 -9.970330 32.021172 -27.990143 48.121197 -17.462061 -4.440926 -31.213860 10.416355 -17.047573 -11.017981 -37.052363 11.624136 31.139778 -7.576780 6.998080 -8.316990 -13.173777 20.091772 -3.779346 -50.773365 35.929777 -15.456558 13.128322 5.715475 1.420030 -3.720523 2.647825 0.499390 -0.285780 0.279000 0.257640 -8.419127 0.878285 7.685980 36.353560 -3.421066 -12.494775 -135.210195 -12.495644 34.624415 3.341482 -2.511534 0.164210 -0.079860 -0.167970 0.163050 
0.667500 15.428580 -2.554420 -1.509404 -5.811919 11.439239 -16.065407 11.488854 4.552466 38.226982 3.412127 -30.622781 -2.054960 7.014643 8.686203 0.769427 5.757163 2.448008 0.214850 -0.058460 0.156960 18.221718 -5.087190 5.594983 -33.507152 10.043600 -52.031101 45.879540 -30.365123 39.324168 -2.071798 -10.531578 0.890182 -0.457550 -0.004230 0.332860 -2.442579 -7.362062 -10.001470 33.766047 -27.383821 46.703697 -17.624438 -3.344494 -30.924850 10.483607 -16.586820 -10.893821 -34.913924 11.158656 32.024296 -7.779050 8.155550 -7.415540 -12.180274 20.313761 -3.792500 -52.285813 35.384832 -15.738104 13.036058 7.419840 1.723404 -3.762991 2.740282 0.435340 -0.275510 0.324150 0.260020 -9.661090 1.427642 7.203530 35.264717 -0.431094 -12.267758 -138.777905 -19.737393 53.335731 3.503090 -2.577854 0.266000 -0.184220 -0.232480 0.176600 
0.646930 15.357420 -2.584630 -2.426146 -5.151671 11.663795 -16.062620 11.369952 4.602250 38.200995 3.689240 -31.878800 -1.020383 6.842000 8.412860 0.805565 5.653734 2.490635 0.208160 -0.050310 0.136580 18.246955 -4.990631 5.709278 -32.900574 10.754378 -53.689007 45.947761 -31.324984 40.741473 -2.160179 -10.837799 0.832870 -0.466860 0.008370 0.354710 -2.467103 -7.290130 -10.114957 33.011892 -26.539008 46.792025 -17.162228 -2.434584 -30.153740 10.461232 -15.660202 -11.878633 -33.047006 10.173657 33.438429 -6.951290 8.017660 -4.355730 -10.512431 17.723691 -2.002593 -54.060923 34.438055 -16.174785 10.582895 9.508151 1.731710 -3.799187 2.767753 0.407160 -0.240440 0.332240 0.288910 -10.768838 3.836065 6.974714 35.857279 -0.830638 -14.600436 -142.492455 -24.886175 68.047261 3.594931 -2.595629 0.285150 -0.214940 -0.256000 0.194430 
0.615570 15.332650 -2.643420 -2.852068 -4.802066 10.874986 -16.118106 11.127336 4.886238 39.639531 4.366130 -33.615472 -2.909743 7.742683 10.875053 0.831691 6.098660 2.320612 0.191990 -0.070240 0.131340 18.253452 -4.845397 5.659096 -31.793044 11.855912 -54.288473 44.686185 -31.690001 42.782062 -2.204979 -11.067957 0.764516 -0.479570 -0.008510 0.339170 -2.414453 -7.215681 -10.266345 30.010384 -25.677062 50.201908 -15.778768 -1.794653 -30.796113 9.964628 -15.529590 -12.016639 -32.635636 9.688120 32.966798 -4.695220 7.079000 -4.966080 -8.819178 17.305315 -1.348555 -55.357677 32.601629 -16.335762 12.926730 7.704023 1.824038 -3.771092 2.831336 0.411010 -0.257970 0.318230 0.257850 -11.269414 4.362673 6.505120 35.715863 0.026311 -15.235843 -146.158277 -26.316398 76.705915 3.631463 -2.598593 0.283360 -0.235630 -0.241930 0.181570 
